<?xml version="1.0" encoding="utf-8"?>
<!-- Generator: Adobe Illustrator 18.1.1, SVG Export Plug-In . SVG Version: 6.00 Build 0)  -->
<svg version="1.1" id="Layer_1" xmlns="http://www.w3.org/2000/svg" xmlns:xlink="http://www.w3.org/1999/xlink" x="0px" y="0px"
	 viewBox="-196.3 292 572.9 839.9" enable-background="new -196.3 292 572.9 839.9" xml:space="preserve">
<path fill="#EEEDED" stroke="#000000" stroke-width="3" stroke-miterlimit="10" d="M146.1,801.2
	c-25.5,11.3-43.2,36.4-43.2,66.1c0,49.7,40.3,90,90,90c62.3,0,112.6-50.3,112.6-112.6c0-77.7-62.9-140.6-140.6-140.6h-149
	c-77.7,0-140.6,62.9-140.6,140.6c0,62.3,50.3,112.6,112.6,112.6c49.7,0,90-40.3,90-90c0-30.6-19-56.8-45.8-67.1L146.1,801.2z"/>
<path fill="none" stroke="#B2B2B2" stroke-width="3" stroke-miterlimit="10" d="M207.4,788.9c31.9,0,57.7,25.8,57.7,57.7
	c0,25.5-20.6,46.1-46.1,46.1c-20.3,0-36.8-16.5-36.8-36.8c0-16.5,13.2-29.4,29.4-29.4c12.9,0,23.5,10.6,23.5,23.5
	c0,10.3-8.4,19-19,19"/>
<path fill="none" stroke="#B2B2B2" stroke-width="3" stroke-miterlimit="10" d="M-35.2,868.6c-10.3,0-19-8.4-19-19
	c0-12.9,10.6-23.5,23.5-23.5c16.5,0,29.4,13.2,29.4,29.4c0,20.3-16.5,36.8-36.8,36.8c-25.5,0-46.1-20.6-46.1-46.1
	c0-31.9,25.8-57.7,57.7-57.7"/>
<path fill="#EEEDED" stroke="#000000" stroke-width="3" stroke-miterlimit="10" d="M146.1,494.8
	c-25.5-11.3-43.2-36.4-43.2-66.1c0-49.7,40.3-90,90-90c62.3,0,112.6,50.3,112.6,112.6c0,77.7-62.9,140.6-140.6,140.6h-149
	c-77.7,0-140.6-62.9-140.6-140.6c0-62.3,50.3-112.6,112.6-112.6c49.7,0,90,40.3,90,90c0,30.6-19,56.8-45.8,67.1L146.1,494.8z"/>
<path fill="none" stroke="#B2B2B2" stroke-width="3" stroke-miterlimit="10" d="M175.1,500.9c31.9,0,57.7-25.8,57.7-57.7
	c0-25.5-20.6-46.1-46.1-46.1c-20.3,0-36.8,16.5-36.8,36.8c0,16.5,13.2,29.4,29.4,29.4c12.9,0,23.5-10.6,23.5-23.5
	c0-10.3-8.4-19-19-19"/>
<path fill="none" stroke="#B2B2B2" stroke-width="3" stroke-miterlimit="10" d="M-2.9,420.9c-10.3,0-19,8.4-19,19
	c0,12.9,10.6,23.5,23.5,23.5c16.5,0,29.4-13.2,29.4-29.4c0-20.3-16.5-36.8-36.8-36.8c-25.5,0-46.1,20.6-46.1,46.1
	c0,31.9,25.8,57.7,57.7,57.7"/>
<polyline fill="#3D3D3B" stroke="#000000" stroke-width="3" stroke-miterlimit="10" points="90.3,1131.8 58,1007 122.5,1007 
	90.3,1131.8 "/>
<path fill="#FDEB1B" stroke="#000000" stroke-width="3" stroke-miterlimit="10" d="M92.5,798.9c51.3,0,98.1-16.5,132.6-43.5
	C208,663.8,154.2,597,90.6,597c-63.9,0-117.4,66.8-134.5,158.4c34.5,26.8,81.3,43.5,132.6,43.5H92.5z"/>
<path fill="#3D3D3B" stroke="#000000" stroke-width="3" stroke-miterlimit="10" d="M94.5,887.3c52.9,0,100.6-17.4,135.5-45.8
	c0.6-7.7,1-15.5,1-23.5c0-21.6-1.9-42.6-5.8-62.3c-34.5,26.8-81.3,43.5-132.6,43.5h-4.2c-51.3,0-98.1-16.5-132.6-43.5
	c-3.5,19.7-5.8,40.6-5.8,62.3c0,6.8,0.3,13.5,0.6,20c35.2,30.3,84.8,49.4,139.7,49.4H94.5z"/>
<path fill="#FDEB1B" stroke="#000000" stroke-width="3" stroke-miterlimit="10" d="M94.5,887.3h-4.2
	c-55.2,0-104.5-19-139.7-49.4c2.3,40.3,11.6,77.7,25.8,109c31.6,18.4,70,29.4,111.9,29.4h4.2c41.6,0,80.3-11,111.9-29.4
	c13.9-30.3,22.9-66.1,25.8-105.5C195.1,869.9,147.4,887.3,94.5,887.3z"/>
<path fill="#3D3D3B" stroke="#000000" stroke-width="3" stroke-miterlimit="10" d="M88.3,976.3c-41.6,0-80.3-11-111.9-29.4
	c25.5,55.5,67.1,91.9,113.9,91.9s88.4-36.1,113.9-91.9c-31.6,18.4-70,29.4-111.9,29.4H88.3L88.3,976.3z"/>
<circle fill="#FDEB1B" stroke="#000000" stroke-width="3" stroke-miterlimit="10" cx="90.3" cy="588.6" r="140.3"/>
<path fill="none" stroke="#000000" stroke-width="3" stroke-miterlimit="10" d="M130.6,690.9c0-22.3-18.1-40.3-40.3-40.3h-5.2
	c-22.3,0-40.3,18.1-40.3,40.3"/>
<path fill="#FFFFFF" stroke="#000000" stroke-width="3" stroke-miterlimit="10" d="M50.6,568.6c0,10.3-3.9,19-8.7,19
	s-8.7-8.4-8.7-19c0-5.5,1-10.6,2.9-13.9l-57.7-21.9c-6.1,15.8,2.9,57.1,29.7,67.1c26.8,10,61-14.8,66.8-30.6l-25.2-9.7
	C50.3,562.5,50.6,565.4,50.6,568.6z"/>
<path fill="#FFFFFF" stroke="#000000" stroke-width="3" stroke-miterlimit="10" d="M197.1,532.8l-58.4,22.3
	c1.6,3.5,2.6,8.4,2.6,13.5c0,10.3-3.9,19-8.7,19c-4.8,0-8.7-8.4-8.7-19c0-2.9,0.3-5.8,1-8.4l-24.2,9.4c6.1,15.8,40.3,40.6,66.8,30.6
	C194.2,589.9,203.2,548.6,197.1,532.8z"/>
<path fill="#E30613" stroke="#000000" stroke-width="3" stroke-miterlimit="10" d="M41.9,587.7c4.8,0,8.7-8.4,8.7-19
	c0-3.2-0.3-6.1-1-8.7l-13.5-5.2c-1.6,3.5-2.9,8.4-2.9,13.9C33.2,578.9,37.1,587.7,41.9,587.7z"/>
<path fill="#E30613" stroke="#000000" stroke-width="3" stroke-miterlimit="10" d="M132.5,587.7c4.8,0,8.7-8.4,8.7-19
	c0-5.5-1-10.3-2.6-13.5l-13.9,5.2c-0.6,2.6-1,5.5-1,8.4C123.8,578.9,127.7,587.7,132.5,587.7z"/>
<ellipse stroke="#000000" stroke-width="3" stroke-miterlimit="10" cx="41.6" cy="569.6" rx="2.9" ry="10"/>
<ellipse stroke="#000000" stroke-width="3" stroke-miterlimit="10" cx="132.5" cy="569.6" rx="2.9" ry="10"/>
<circle fill="#FFFFFF" stroke="#000000" stroke-width="3" stroke-miterlimit="10" cx="130" cy="563.1" r="4.5"/>
<circle fill="#FFFFFF" stroke="#000000" stroke-width="3" stroke-miterlimit="10" cx="37.4" cy="563.1" r="4.5"/>
<g>
	<path d="M41.5,532.9c0,0,0-1.3-0.1-3.7c0-1.2,0-2.7-0.1-4.4c0-0.9,0-1.8-0.1-2.8c-0.1-1-0.1-2-0.2-3.1c-0.1-2.2-0.3-4.6-0.5-7.2
		c-0.3-2.6-0.6-5.5-1-8.5c-0.1-1.5-0.4-3.1-0.7-4.7c-0.3-1.6-0.5-3.3-0.8-5c-0.2-0.8-0.3-1.7-0.5-2.6c-0.2-0.9-0.4-1.7-0.6-2.6
		c-0.4-1.8-0.8-3.6-1.2-5.4c-0.4-1.9-1-3.7-1.5-5.6c-0.5-1.9-1.1-3.8-1.6-5.8c-0.6-1.9-1.3-3.9-1.9-5.9c-0.3-1-0.7-2-1-3
		c-0.3-1-0.8-2-1.1-3c-0.8-2-1.6-4.1-2.4-6.2c-0.8-2.1-1.8-4.1-2.7-6.2c-0.5-1-0.9-2.1-1.4-3.1c-0.5-1.1-1-2.1-1.5-3.1
		c-1-2.1-2.1-4.2-3.2-6.3c-4.5-8.3-9.7-16.7-15.5-24.8c-5.9-8-12.5-15.8-19.5-23.1c-7.2-7.2-14.8-13.9-22.7-20
		c-8-6-16.3-11.3-24.6-16c-2.1-1.1-4.2-2.2-6.3-3.3c-1-0.5-2.1-1.1-3.1-1.6c-1.1-0.5-2.1-1-3.1-1.5c-2.1-0.9-4.1-2-6.2-2.8
		c-2.1-0.8-4.1-1.7-6.2-2.5c-1-0.4-2-0.8-3-1.2c-1-0.4-2-0.7-3-1.1c-2-0.7-4-1.4-5.9-2.1c-2-0.6-3.9-1.2-5.8-1.7
		c-1.9-0.5-3.8-1.2-5.6-1.6c-1.9-0.4-3.7-0.9-5.5-1.3c-0.9-0.2-1.8-0.4-2.6-0.6c-0.9-0.2-1.7-0.3-2.6-0.5c-1.7-0.3-3.4-0.6-5-0.9
		c-1.6-0.3-3.2-0.6-4.7-0.8c-3.1-0.4-6-0.8-8.6-1.2c-2.7-0.2-5.1-0.4-7.4-0.6c-1.1-0.1-2.2-0.2-3.2-0.3c-1,0-1.9-0.1-2.8-0.1
		c-1.7-0.1-3.2-0.1-4.4-0.2c-2.4-0.1-3.7-0.1-3.7-0.1s1.3,0,3.7,0.1c1.2,0,2.7,0,4.4,0.1c0.9,0,1.8,0,2.8,0.1c1,0.1,2,0.1,3.2,0.2
		c2.2,0.2,4.7,0.3,7.4,0.5c2.7,0.3,5.6,0.7,8.7,1c1.6,0.1,3.1,0.4,4.8,0.7c1.6,0.3,3.3,0.6,5,0.8c0.9,0.2,1.7,0.3,2.6,0.5
		c0.9,0.2,1.8,0.4,2.7,0.6c1.8,0.4,3.6,0.8,5.5,1.2c1.9,0.4,3.8,1,5.7,1.5c1.9,0.5,3.9,1.1,5.9,1.6c2,0.6,4,1.3,6,2
		c1,0.3,2,0.7,3.1,1c1,0.3,2,0.8,3.1,1.1c2.1,0.8,4.1,1.6,6.3,2.4c2.1,0.8,4.2,1.8,6.3,2.7c1.1,0.5,2.1,0.9,3.2,1.4
		c1.1,0.5,2.1,1,3.2,1.6c2.1,1.1,4.2,2.1,6.4,3.2c8.5,4.6,16.9,9.8,25.1,15.7c8.1,6,16,12.7,23.4,19.8c7.3,7.3,14.1,15,20.3,23.1
		c6.1,8.1,11.5,16.5,16.3,25c1.1,2.1,2.2,4.3,3.3,6.4c0.5,1.1,1.1,2.1,1.6,3.2c0.5,1.1,1,2.1,1.5,3.2c1,2.1,2,4.2,2.9,6.3
		c0.9,2.1,1.7,4.2,2.5,6.3c0.4,1,0.9,2,1.2,3.1c0.4,1,0.7,2.1,1.1,3.1c0.7,2,1.4,4,2.1,6c0.6,2,1.2,4,1.7,5.9
		c0.5,1.9,1.2,3.8,1.6,5.7c0.5,1.9,0.9,3.7,1.3,5.5c0.2,0.9,0.4,1.8,0.6,2.7c0.2,0.9,0.3,1.8,0.5,2.6c0.3,1.7,0.6,3.4,1,5.1
		c0.3,1.6,0.6,3.2,0.8,4.8c0.4,3.1,0.8,6.1,1.2,8.8c0.2,2.7,0.4,5.3,0.6,7.5c0.1,1.1,0.2,2.2,0.3,3.2c0,1,0.1,1.9,0.1,2.8
		c0.1,1.7,0.1,3.2,0.2,4.4c0.1,2.4,0.1,3.7,0.1,3.7L41.5,532.9z"/>
</g>
<g>
	<path d="M132.8,532.7c0,0,0-1.3,0.1-3.7c0-1.2,0.1-2.7,0.2-4.4c0-0.9,0.1-1.8,0.1-2.8c0.1-1,0.2-2.1,0.3-3.2
		c0.2-2.3,0.4-4.8,0.6-7.5c0.4-2.7,0.8-5.6,1.2-8.8c0.2-1.6,0.5-3.2,0.8-4.8c0.3-1.6,0.6-3.3,1-5.1c0.2-0.9,0.3-1.8,0.5-2.6
		c0.2-0.9,0.4-1.8,0.6-2.7c0.4-1.8,0.9-3.7,1.3-5.5c0.4-1.9,1.1-3.8,1.6-5.7c0.6-1.9,1.1-3.9,1.7-5.9c0.7-2,1.4-4,2.1-6
		c0.4-1,0.7-2,1.1-3.1c0.4-1,0.8-2,1.2-3.1c0.8-2.1,1.7-4.1,2.5-6.3c0.9-2.1,1.9-4.2,2.9-6.3c0.5-1.1,1-2.1,1.5-3.2
		c0.5-1.1,1.1-2.1,1.6-3.2c1.1-2.1,2.2-4.2,3.3-6.4c4.8-8.4,10.2-16.8,16.3-25c6.2-8,13-15.8,20.3-23.1c7.4-7.2,15.3-13.8,23.4-19.8
		c8.2-5.9,16.7-11.1,25.1-15.7c2.2-1.1,4.3-2.1,6.4-3.2c1.1-0.5,2.1-1.1,3.2-1.6c1.1-0.5,2.1-0.9,3.2-1.4c2.1-0.9,4.2-1.9,6.3-2.7
		c2.1-0.8,4.2-1.6,6.3-2.4c1-0.4,2-0.8,3.1-1.1c1-0.3,2.1-0.7,3.1-1c2-0.7,4-1.3,6-2c2-0.5,4-1.1,5.9-1.6c1.9-0.5,3.8-1.1,5.7-1.5
		c1.9-0.4,3.7-0.8,5.5-1.2c0.9-0.2,1.8-0.4,2.7-0.6c0.9-0.2,1.8-0.3,2.6-0.5c1.7-0.3,3.4-0.6,5-0.8c1.6-0.3,3.2-0.6,4.8-0.7
		c3.1-0.4,6-0.7,8.7-1c2.7-0.2,5.2-0.3,7.4-0.5c1.1-0.1,2.2-0.1,3.2-0.2c1,0,1.9,0,2.8-0.1c1.7,0,3.2-0.1,4.4-0.1
		c2.4,0,3.7-0.1,3.7-0.1s-1.3,0-3.7,0.1c-1.2,0-2.7,0.1-4.4,0.2c-0.9,0-1.8,0.1-2.8,0.1c-1,0.1-2,0.2-3.2,0.3
		c-2.2,0.2-4.7,0.4-7.4,0.6c-2.7,0.4-5.6,0.8-8.6,1.2c-1.5,0.2-3.1,0.5-4.7,0.8c-1.6,0.3-3.3,0.6-5,0.9c-0.9,0.2-1.7,0.3-2.6,0.5
		c-0.9,0.2-1.7,0.4-2.6,0.6c-1.8,0.4-3.6,0.9-5.5,1.3c-1.9,0.4-3.7,1-5.6,1.6c-1.9,0.6-3.8,1.1-5.8,1.7c-1.9,0.7-3.9,1.4-5.9,2.1
		c-1,0.3-2,0.7-3,1.1c-1,0.4-2,0.8-3,1.2c-2,0.8-4.1,1.6-6.2,2.5c-2.1,0.9-4.1,1.9-6.2,2.8c-1,0.5-2.1,1-3.1,1.5
		c-1.1,0.5-2.1,1.1-3.1,1.6c-2.1,1.1-4.2,2.2-6.3,3.3c-8.3,4.7-16.6,10-24.6,16c-7.9,6.1-15.6,12.8-22.7,20
		c-7.1,7.3-13.6,15-19.5,23.1c-5.9,8.1-11,16.5-15.5,24.8c-1.1,2.1-2.1,4.2-3.2,6.3c-0.5,1-1.1,2.1-1.5,3.1
		c-0.5,1.1-0.9,2.1-1.4,3.1c-0.9,2.1-1.9,4.1-2.7,6.2c-0.8,2.1-1.6,4.1-2.4,6.2c-0.4,1-0.8,2-1.1,3c-0.3,1-0.7,2-1,3
		c-0.7,2-1.3,4-1.9,5.9c-0.5,2-1.1,3.9-1.6,5.8c-0.5,1.9-1.1,3.7-1.5,5.6c-0.4,1.8-0.8,3.7-1.2,5.4c-0.2,0.9-0.4,1.8-0.6,2.6
		c-0.2,0.9-0.3,1.7-0.5,2.6c-0.3,1.7-0.6,3.4-0.8,5c-0.3,1.6-0.6,3.2-0.7,4.7c-0.4,3.1-0.7,5.9-1,8.5c-0.2,2.6-0.3,5.1-0.5,7.2
		c-0.1,1.1-0.1,2.1-0.2,3.1c0,1,0,1.9-0.1,2.8c0,1.7-0.1,3.2-0.1,4.4c0,2.4-0.1,3.7-0.1,3.7L132.8,532.7z"/>
</g>
</svg>
